<mxfile host="65bd71144e">
    <diagram id="gWISrfITsax8uBcyrK8t" name="Page-1">
        <mxGraphModel dx="1083" dy="572" grid="0" gridSize="10" guides="1" tooltips="1" connect="1" arrows="1" fold="1" page="1" pageScale="1" pageWidth="413" pageHeight="291" math="0" shadow="0">
            <root>
                <mxCell id="0"/>
                <mxCell id="1" parent="0"/>
                <mxCell id="12" style="edgeStyle=none;html=1;entryX=0;entryY=0.5;entryDx=0;entryDy=0;" parent="1" source="7" target="10" edge="1">
                    <mxGeometry relative="1" as="geometry"/>
                </mxCell>
                <mxCell id="7" value="" style="shape=waypoint;sketch=0;fillStyle=solid;size=6;pointerEvents=1;points=[];fillColor=none;resizable=0;rotatable=0;perimeter=centerPerimeter;snapToPoint=1;strokeWidth=6;" parent="1" vertex="1">
                    <mxGeometry x="66" y="262" width="20" height="20" as="geometry"/>
                </mxCell>
                <mxCell id="18" style="edgeStyle=none;html=1;exitX=1;exitY=0.5;exitDx=0;exitDy=0;entryX=0;entryY=0.5;entryDx=0;entryDy=0;" parent="1" source="10" target="13" edge="1">
                    <mxGeometry relative="1" as="geometry"/>
                </mxCell>
                <mxCell id="10" value="Pas de données" style="rounded=1;whiteSpace=wrap;html=1;strokeWidth=6;" parent="1" vertex="1">
                    <mxGeometry x="208" y="239" width="120" height="60" as="geometry"/>
                </mxCell>
                <mxCell id="19" style="edgeStyle=none;html=1;exitX=1;exitY=0.5;exitDx=0;exitDy=0;entryX=0;entryY=0.5;entryDx=0;entryDy=0;" parent="1" source="13" target="16" edge="1">
                    <mxGeometry relative="1" as="geometry"/>
                </mxCell>
                <mxCell id="13" value="Extraction des données" style="rounded=1;whiteSpace=wrap;html=1;strokeWidth=6;" parent="1" vertex="1">
                    <mxGeometry x="414" y="233" width="120" height="60" as="geometry"/>
                </mxCell>
                <mxCell id="24" style="edgeStyle=none;html=1;entryX=0.5;entryY=0;entryDx=0;entryDy=0;" parent="1" source="16" target="23" edge="1">
                    <mxGeometry relative="1" as="geometry"/>
                </mxCell>
                <mxCell id="16" value="classement des personnes et des chambres" style="rounded=1;whiteSpace=wrap;html=1;strokeWidth=6;" parent="1" vertex="1">
                    <mxGeometry x="625" y="233" width="120" height="60" as="geometry"/>
                </mxCell>
                <mxCell id="26" style="edgeStyle=none;html=1;" parent="1" source="17" edge="1">
                    <mxGeometry relative="1" as="geometry">
                        <mxPoint x="575" y="495" as="targetPoint"/>
                    </mxGeometry>
                </mxCell>
                <mxCell id="17" value="choix de l'utilisateur de l'action à faire" style="rounded=1;whiteSpace=wrap;html=1;strokeWidth=6;" parent="1" vertex="1">
                    <mxGeometry x="621" y="445" width="120" height="60" as="geometry"/>
                </mxCell>
                <mxCell id="25" style="edgeStyle=none;html=1;entryX=0.5;entryY=0;entryDx=0;entryDy=0;" parent="1" source="23" target="17" edge="1">
                    <mxGeometry relative="1" as="geometry"/>
                </mxCell>
                <mxCell id="23" value="répartition des chambres et des personnes" style="rounded=1;whiteSpace=wrap;html=1;strokeWidth=6;" parent="1" vertex="1">
                    <mxGeometry x="627" y="339" width="120" height="60" as="geometry"/>
                </mxCell>
                <mxCell id="31" value="action utilisateur" style="swimlane;whiteSpace=wrap;html=1;strokeWidth=6;" parent="1" vertex="1">
                    <mxGeometry x="86" y="357" width="444" height="297" as="geometry"/>
                </mxCell>
                <mxCell id="20" value="afficher la répartition" style="rounded=1;whiteSpace=wrap;html=1;strokeWidth=6;" parent="31" vertex="1">
                    <mxGeometry x="153" y="38" width="120" height="60" as="geometry"/>
                </mxCell>
                <mxCell id="27" value="ajout d'une personne" style="rounded=1;whiteSpace=wrap;html=1;strokeWidth=6;" parent="31" vertex="1">
                    <mxGeometry x="158" y="118.5" width="120" height="60" as="geometry"/>
                </mxCell>
                <mxCell id="28" value="ajout d'une chambre" style="rounded=1;whiteSpace=wrap;html=1;strokeWidth=6;" parent="31" vertex="1">
                    <mxGeometry x="162" y="197.5" width="120" height="60" as="geometry"/>
                </mxCell>
                <mxCell id="37" value="" style="endArrow=classic;html=1;entryX=1;entryY=0.5;entryDx=0;entryDy=0;" parent="31" target="28" edge="1">
                    <mxGeometry width="50" height="50" relative="1" as="geometry">
                        <mxPoint x="486" y="233" as="sourcePoint"/>
                        <mxPoint x="462" y="241" as="targetPoint"/>
                    </mxGeometry>
                </mxCell>
                <mxCell id="40" value="" style="endArrow=none;dashed=1;html=1;strokeWidth=5;" parent="31" edge="1">
                    <mxGeometry width="50" height="50" relative="1" as="geometry">
                        <mxPoint x="-4.5" y="186" as="sourcePoint"/>
                        <mxPoint x="448.5" y="181" as="targetPoint"/>
                    </mxGeometry>
                </mxCell>
                <mxCell id="33" value="" style="endArrow=none;html=1;strokeWidth=5;" parent="1" edge="1">
                    <mxGeometry width="50" height="50" relative="1" as="geometry">
                        <mxPoint x="573" y="622" as="sourcePoint"/>
                        <mxPoint x="573" y="389" as="targetPoint"/>
                    </mxGeometry>
                </mxCell>
                <mxCell id="35" value="" style="endArrow=classic;html=1;entryX=1;entryY=0.5;entryDx=0;entryDy=0;" parent="1" target="20" edge="1">
                    <mxGeometry width="50" height="50" relative="1" as="geometry">
                        <mxPoint x="572" y="428" as="sourcePoint"/>
                        <mxPoint x="532" y="365" as="targetPoint"/>
                    </mxGeometry>
                </mxCell>
                <mxCell id="36" value="" style="endArrow=classic;html=1;entryX=1;entryY=0.5;entryDx=0;entryDy=0;" parent="1" target="27" edge="1">
                    <mxGeometry width="50" height="50" relative="1" as="geometry">
                        <mxPoint x="570" y="499" as="sourcePoint"/>
                        <mxPoint x="532" y="365" as="targetPoint"/>
                    </mxGeometry>
                </mxCell>
                <mxCell id="38" value="" style="endArrow=none;html=1;strokeWidth=6;" parent="1" edge="1">
                    <mxGeometry width="50" height="50" relative="1" as="geometry">
                        <mxPoint x="57" y="606" as="sourcePoint"/>
                        <mxPoint x="61" y="378" as="targetPoint"/>
                    </mxGeometry>
                </mxCell>
                <mxCell id="39" value="" style="endArrow=none;dashed=1;html=1;strokeWidth=5;" parent="1" edge="1">
                    <mxGeometry width="50" height="50" relative="1" as="geometry">
                        <mxPoint x="83" y="467" as="sourcePoint"/>
                        <mxPoint x="536" y="462" as="targetPoint"/>
                    </mxGeometry>
                </mxCell>
                <mxCell id="41" style="edgeStyle=none;html=1;strokeWidth=5;" parent="1" source="20" edge="1">
                    <mxGeometry relative="1" as="geometry">
                        <mxPoint x="60" y="425" as="targetPoint"/>
                    </mxGeometry>
                </mxCell>
                <mxCell id="42" style="edgeStyle=none;html=1;strokeWidth=5;" parent="1" source="27" edge="1">
                    <mxGeometry relative="1" as="geometry">
                        <mxPoint x="59" y="505.5" as="targetPoint"/>
                    </mxGeometry>
                </mxCell>
                <mxCell id="43" style="edgeStyle=none;html=1;strokeWidth=5;" parent="1" source="28" edge="1">
                    <mxGeometry relative="1" as="geometry">
                        <mxPoint x="58" y="567" as="targetPoint"/>
                    </mxGeometry>
                </mxCell>
            </root>
        </mxGraphModel>
    </diagram>
</mxfile>